<svg width="860" height="200" viewBox="0 0 860 200" xmlns="http://www.w3.org/2000/svg">
  
  <defs>
    <linearGradient id="bgp" x1="0" y1="0" x2="1" y2="1">
      <stop offset="0%" stop-color="#0b0b0f"/>
      <stop offset="100%" stop-color="#130a08"/>
    </linearGradient>
    <linearGradient id="glp" x1="0" y1="0" x2="1" y2="0">
      <stop offset="0%"   stop-color="#0b0b0f" stop-opacity="0"/>
      <stop offset="30%"  stop-color="#c9a84c"/>
      <stop offset="60%"  stop-color="#b5000c"/>
      <stop offset="100%" stop-color="#0b0b0f" stop-opacity="0"/>
    </linearGradient>
    <linearGradient id="barp" x1="0" y1="0" x2="1" y2="0">
      <stop offset="0%" stop-color="#b5000c"/>
      <stop offset="100%" stop-color="#c9a84c"/>
    </linearGradient>
    <style>
      .mono { font-family: 'Courier New', Courier, monospace; }
    </style>
  </defs>
  
  <rect width="860" height="200" fill="url(#bgp)" rx="6"/>
  <rect width="860" height="200" fill="none" stroke="#c9a84c" stroke-width=".5" rx="6" opacity=".22"/>
  <rect x="0" y="0"   width="860" height="2" fill="url(#glp)"/>
  <rect x="0" y="198" width="860" height="2" fill="url(#glp)" opacity=".45"/>
  <g stroke="#b5000c" stroke-width="1.5" fill="none" opacity=".6">
    <path d="M14,26 L14,14 L26,14"/>
    <path d="M846,26 L846,14 L834,14"/>
    <path d="M14,174 L14,186 L26,186"/>
    <path d="M846,174 L846,186 L834,186"/>
  </g>
  <text class="mono" x="30" y="34" font-size="8" fill="#5a5450" letter-spacing="3">// PINNED PROJECTS</text>
  <rect x="30" y="40" width="800" height=".5" fill="#c9a84c" opacity=".12"/>
  
  <rect x="30" y="50" width="256" height="112" rx="3" fill="#0e0c0a" stroke="#c9a84c" stroke-width=".4" opacity=".9"/>
  <rect x="30" y="50" width="256" height="1.5" rx="1" fill="#b5000c" opacity=".7"/>
  
  <text class="mono" x="44" y="74" font-size="12" fill="#f0ece0" letter-spacing=".5" font-weight="bold">learn-Japanese</text>
  <text class="mono" x="44" y="90"  font-size="9" fill="#908880">No description</text>
  
  <rect x="44" y="112" width="228" height=".5" fill="#c9a84c" opacity=".12"/>
  <circle cx="50" cy="126" r="4" fill="#c9a84c"/>
  <text class="mono" x="59" y="129" font-size="8.5" fill="#908880" letter-spacing=".5">CSS</text>
  <text class="mono" x="180" y="129" font-size="9" fill="#c9a84c">★</text>
  <text class="mono" x="191" y="129" font-size="8.5" fill="#5a5450">0</text>
  <text class="mono" x="215" y="129" font-size="8.5" fill="#5a5450">⑂</text>
  <text class="mono" x="227" y="129" font-size="8.5" fill="#5a5450">0</text>
  <rect x="302" y="50" width="256" height="112" rx="3" fill="#0e0c0a" stroke="#c9a84c" stroke-width=".4" opacity=".9"/>
  <rect x="302" y="50" width="256" height="1.5" rx="1" fill="#b5000c" opacity=".7"/>
  
  <text class="mono" x="316" y="74" font-size="12" fill="#f0ece0" letter-spacing=".5" font-weight="bold">simple-Japanese-web</text>
  <text class="mono" x="316" y="90"  font-size="9" fill="#908880">No description</text>
  
  <rect x="316" y="112" width="228" height=".5" fill="#c9a84c" opacity=".12"/>
  <circle cx="322" cy="126" r="4" fill="#c9a84c"/>
  <text class="mono" x="331" y="129" font-size="8.5" fill="#908880" letter-spacing=".5">HTML</text>
  <text class="mono" x="452" y="129" font-size="9" fill="#c9a84c">★</text>
  <text class="mono" x="463" y="129" font-size="8.5" fill="#5a5450">0</text>
  <text class="mono" x="487" y="129" font-size="8.5" fill="#5a5450">⑂</text>
  <text class="mono" x="499" y="129" font-size="8.5" fill="#5a5450">0</text>
  <rect x="574" y="50" width="256" height="112" rx="3" fill="#0e0c0a" stroke="#b5000c" stroke-width=".6" opacity=".9"/>
  <rect x="574" y="50" width="256" height="1.5" rx="1" fill="#b5000c" opacity=".9"/>
  <rect x="682" y="56" width="56" height="13" rx="2" fill="#b5000c" opacity=".85"/>
  <text class="mono" x="710" y="65.5" font-size="7" fill="#f0ece0" text-anchor="middle" letter-spacing="1.5">FEATURED</text>
  <text class="mono" x="588" y="74" font-size="12" fill="#f0ece0" letter-spacing=".5" font-weight="bold">telegram</text>
  <text class="mono" x="588" y="90"  font-size="9" fill="#908880">No description</text>
  
  <rect x="588" y="112" width="228" height=".5" fill="#c9a84c" opacity=".12"/>
  <circle cx="594" cy="126" r="4" fill="#3572A5"/>
  <text class="mono" x="603" y="129" font-size="8.5" fill="#908880" letter-spacing=".5">Python</text>
  <text class="mono" x="724" y="129" font-size="9" fill="#c9a84c">★</text>
  <text class="mono" x="735" y="129" font-size="8.5" fill="#5a5450">0</text>
  <text class="mono" x="759" y="129" font-size="8.5" fill="#5a5450">⑂</text>
  <text class="mono" x="771" y="129" font-size="8.5" fill="#5a5450">0</text>
  <text class="mono" x="430" y="178" font-size="8" fill="#3a3430" text-anchor="middle" letter-spacing="2">github.com/izukuX2</text>
</svg>