<!-- ═══════════════ SOCIAL LINKS ═══════════════ -->
<svg>
<g>
  <!-- Section Title -->
  <text class="mono" x="30" y="28" font-size="8" fill="#5a5450" letter-spacing="3">
    // SOCIAL LINKS
  </text>
  <rect x="30" y="34" width="800" height=".5" fill="#c9a84c" opacity=".12"/>

  <!-- GitHub -->
  <g class="fi1">
    <rect x="30" y="50" width="190" height="110" rx="3"
      fill="#0e0c0a" stroke="#c9a84c" stroke-width=".4"/>

    <text class="mono" x="45" y="75" font-size="11" fill="#f0ece0">GitHub</text>
    <text class="mono" x="45" y="92" font-size="9" fill="#908880">@izukuX2</text>

    <circle cx="200" cy="140" r="4" fill="#c9a84c"/>
  </g>

  <!-- Instagram -->
  <g class="fi2">
    <rect x="230" y="50" width="190" height="110" rx="3"
      fill="#0e0c0a" stroke="#b5000c" stroke-width=".4"/>

    <text class="mono" x="245" y="75" font-size="11" fill="#f0ece0">Instagram</text>
    <text class="mono" x="245" y="92" font-size="9" fill="#908880">@izuku_ffx</text>

    <circle cx="400" cy="140" r="4" fill="#b5000c"/>
  </g>

  <!-- Telegram -->
  <g class="fi3">
    <rect x="430" y="50" width="190" height="110" rx="3"
      fill="#0e0c0a" stroke="#3b6bdf" stroke-width=".4"/>

    <text class="mono" x="445" y="75" font-size="11" fill="#f0ece0">Telegram</text>
    <text class="mono" x="445" y="92" font-size="9" fill="#908880">@izukuX2</text>

    <circle cx="600" cy="140" r="4" fill="#3b6bdf"/>
  </g>

  <!-- Discord -->
  <g class="fi3">
    <rect x="630" y="50" width="200" height="110" rx="3"
      fill="#0e0c0a" stroke="#61dafb" stroke-width=".4"/>

    <text class="mono" x="645" y="75" font-size="11" fill="#f0ece0">Discord</text>
    <text class="mono" x="645" y="92" font-size="9" fill="#908880">izuku_ffx</text>

    <circle cx="820" cy="140" r="4" fill="#61dafb"/>
  </g>

  <!-- bottom glow line -->
  <rect x="30" y="165" width="800" height=".5" fill="#c9a84c" opacity=".15"/>

  <text class="mono" x="430" y="185" font-size="8"
    fill="#3a3430" text-anchor="middle" letter-spacing="2">
    CONNECT • SHARE • BUILD
  </text>
</g>
</svg>
