<svg width="860" height="200" viewBox="0 0 860 200" xmlns="http://www.w3.org/2000/svg">
  
  <defs>
    <linearGradient id="bgsc" x1="0" y1="0" x2="1" y2="1">
      <stop offset="0%" stop-color="#0b0b0f"/>
      <stop offset="100%" stop-color="#130a08"/>
    </linearGradient>
    <linearGradient id="glsc" x1="0" y1="0" x2="1" y2="0">
      <stop offset="0%"   stop-color="#0b0b0f" stop-opacity="0"/>
      <stop offset="30%"  stop-color="#c9a84c"/>
      <stop offset="60%"  stop-color="#b5000c"/>
      <stop offset="100%" stop-color="#0b0b0f" stop-opacity="0"/>
    </linearGradient>
    <linearGradient id="barsc" x1="0" y1="0" x2="1" y2="0">
      <stop offset="0%" stop-color="#b5000c"/>
      <stop offset="100%" stop-color="#c9a84c"/>
    </linearGradient>
    <style>
      .mono { font-family: 'Courier New', Courier, monospace; }
    </style>
  </defs>
  
  <rect width="860" height="200" fill="url(#bgsc)" rx="6"/>
  <rect width="860" height="200" fill="none" stroke="#c9a84c" stroke-width=".5" rx="6" opacity=".22"/>
  <rect x="0" y="0"   width="860" height="2" fill="url(#glsc)"/>
  <rect x="0" y="198" width="860" height="2" fill="url(#glsc)" opacity=".45"/>
  <g stroke="#b5000c" stroke-width="1.5" fill="none" opacity=".6">
    <path d="M14,26 L14,14 L26,14"/>
    <path d="M846,26 L846,14 L834,14"/>
    <path d="M14,174 L14,186 L26,186"/>
    <path d="M846,174 L846,186 L834,186"/>
  </g>

  <text font-family="Courier New,monospace" x="30" y="34" font-size="8" fill="#5a5450" letter-spacing="3">// CONTACT &amp; SOCIAL</text>
  <rect x="30" y="40" width="800" height=".5" fill="#c9a84c" opacity=".12"/>

  
  <rect x="30" y="52" width="148" height="110" rx="3" fill="#0e0c0a" stroke="#c9a84c" stroke-width=".4"/>
  <rect x="30" y="52" width="148" height="1.5" rx="1" fill="#b5000c" opacity=".7"/>
  <circle cx="104" cy="92" r="16" fill="#1c1814" stroke="#c9a84c" stroke-width=".6"/>
  <text font-family="Courier New,monospace" x="104" y="97" font-size="9" fill="#c9a84c" text-anchor="middle" font-weight="bold">GH</text>
  <text font-family="Courier New,monospace" x="104" y="121" font-size="8" fill="#f0ece0" text-anchor="middle" letter-spacing=".5">GitHub</text>
  <text font-family="Courier New,monospace" x="104" y="133" font-size="7" fill="#c9a84c" text-anchor="middle" letter-spacing=".3">izukuX2</text>
  <rect x="192" y="52" width="148" height="110" rx="3" fill="#0e0c0a" stroke="#c9a84c" stroke-width=".4"/>
  <rect x="192" y="52" width="148" height="1.5" rx="1" fill="#b5000c" opacity=".7"/>
  <circle cx="266" cy="92" r="16" fill="#1c1814" stroke="#3b83c8" stroke-width=".6"/>
  <text font-family="Courier New,monospace" x="266" y="97" font-size="9" fill="#3b83c8" text-anchor="middle" font-weight="bold">TG</text>
  <text font-family="Courier New,monospace" x="266" y="121" font-size="8" fill="#f0ece0" text-anchor="middle" letter-spacing=".5">Telegram</text>
  <text font-family="Courier New,monospace" x="266" y="133" font-size="7" fill="#3b83c8" text-anchor="middle" letter-spacing=".3">@attoui_ishak</text>
  <rect x="354" y="52" width="148" height="110" rx="3" fill="#0e0c0a" stroke="#c9a84c" stroke-width=".4"/>
  <rect x="354" y="52" width="148" height="1.5" rx="1" fill="#b5000c" opacity=".7"/>
  <circle cx="428" cy="92" r="16" fill="#1c1814" stroke="#5865f2" stroke-width=".6"/>
  <text font-family="Courier New,monospace" x="428" y="97" font-size="9" fill="#5865f2" text-anchor="middle" font-weight="bold">DC</text>
  <text font-family="Courier New,monospace" x="428" y="121" font-size="8" fill="#f0ece0" text-anchor="middle" letter-spacing=".5">Discord</text>
  <text font-family="Courier New,monospace" x="428" y="133" font-size="7" fill="#5865f2" text-anchor="middle" letter-spacing=".3">izuku_ffx</text>
  <rect x="516" y="52" width="148" height="110" rx="3" fill="#0e0c0a" stroke="#c9a84c" stroke-width=".4"/>
  <rect x="516" y="52" width="148" height="1.5" rx="1" fill="#b5000c" opacity=".7"/>
  <circle cx="590" cy="92" r="16" fill="#1c1814" stroke="#c9a84c" stroke-width=".6"/>
  <text font-family="Courier New,monospace" x="590" y="97" font-size="9" fill="#c9a84c" text-anchor="middle" font-weight="bold">EM</text>
  <text font-family="Courier New,monospace" x="590" y="121" font-size="8" fill="#f0ece0" text-anchor="middle" letter-spacing=".5">Email</text>
  <text font-family="Courier New,monospace" x="590" y="133" font-size="7" fill="#c9a84c" text-anchor="middle" letter-spacing=".3">attouiishak14@gmail.</text>
  <rect x="678" y="52" width="148" height="110" rx="3" fill="#0e0c0a" stroke="#b5000c" stroke-width=".6"/>
  <rect x="678" y="52" width="148" height="1.5" rx="1" fill="#b5000c" opacity=".9"/>
  <circle cx="752" cy="92" r="16" fill="#1c1814" stroke="#b5000c" stroke-width=".6"/>
  <text font-family="Courier New,monospace" x="752" y="97" font-size="9" fill="#b5000c" text-anchor="middle" font-weight="bold">DZ</text>
  <text font-family="Courier New,monospace" x="752" y="121" font-size="8" fill="#f0ece0" text-anchor="middle" letter-spacing=".5">Location</text>
  <text font-family="Courier New,monospace" x="752" y="133" font-size="7" fill="#b5000c" text-anchor="middle" letter-spacing=".3">Algeria · DZ</text>

  <circle cx="30" cy="172" r="3.5" fill="#b5000c"/>
  <text font-family="Courier New,monospace" x="40" y="176" font-size="8" fill="#5a5450" letter-spacing="1.5">ONLINE · DZ</text>
  <text font-family="Courier New,monospace" x="830" y="176" font-size="8" fill="#5a5450" text-anchor="end" letter-spacing="1">0 followers · 3 following</text>
</svg>